<svg xmlns="http://www.w3.org/2000/svg" viewBox="0 0 1490 242" role="img" aria-label="Beyond the Magic — Consulting · Performance Architects">
  <title>Beyond the Magic Consulting LLC — Horizontal Wordmark</title>
  
  <g id="beyond-the-magic"><path d="M245 0H56Q51 0 47.5 3.5Q44 7 44 12V688Q44 693 47.5 696.5Q51 700 56 700H223Q323 700 379.5 652.0Q436 604 436 509Q436 410 368 365Q364 362 367 359Q446 303 446 193Q446 100 390.0 50.0Q334 0 245 0ZM185 574V417Q185 412 190 412H226Q260 412 279.0 433.5Q298 455 298 494Q298 535 279.5 557.0Q261 579 226 579H190Q185 579 185 574ZM305 214Q305 258 286.0 284.0Q267 310 235 310H190Q185 310 185 305V127Q185 122 190 122H234Q267 122 286.0 146.0Q305 170 305 214Z" fill="#1A2744" transform="translate(15.000 141.699) scale(0.196712 -0.196712)"/>
<path d="M399 579H190Q185 579 185 574V416Q185 411 190 411H310Q315 411 318.5 407.5Q322 404 322 399V302Q322 297 318.5 293.5Q315 290 310 290H190Q185 290 185 285V126Q185 121 190 121H399Q404 121 407.5 117.5Q411 114 411 109V12Q411 7 407.5 3.5Q404 0 399 0H56Q51 0 47.5 3.5Q44 7 44 12V688Q44 693 47.5 696.5Q51 700 56 700H399Q404 700 407.5 696.5Q411 693 411 688V591Q411 586 407.5 582.5Q404 579 399 579Z" fill="#1A2744" transform="translate(115.323 141.699) scale(0.196712 -0.196712)"/>
<path d="M166 13V273L165 279L25 686Q24 688 24 691Q24 700 35 700H158Q169 700 172 690L234 451Q235 448 237.0 448.0Q239 448 240 451L302 690Q305 700 316 700H439Q445 700 448.0 696.5Q451 693 449 686L308 279L307 273V13Q307 8 303.5 4.5Q300 1 295 1H178Q173 1 169.5 4.5Q166 8 166 13Z" fill="#1A2744" transform="translate(209.352 141.699) scale(0.196712 -0.196712)"/>
<path d="M34 190V510Q34 600 89.0 654.0Q144 708 236 708Q328 708 383.5 654.0Q439 600 439 510V190Q439 100 383.5 46.0Q328 -8 236 -8Q144 -8 89.0 46.0Q34 100 34 190ZM298 184V516Q298 548 281.0 567.5Q264 587 236 587Q208 587 191.5 567.5Q175 548 175 516V184Q175 152 191.5 132.5Q208 113 236 113Q264 113 281.0 132.5Q298 152 298 184Z" fill="#1A2744" transform="translate(310.462 141.699) scale(0.196712 -0.196712)"/>
<path d="M342 700H458Q463 700 466.5 696.5Q470 693 470 688V12Q470 7 466.5 3.5Q463 0 458 0H326Q316 0 313 10L189 397Q188 400 185.5 399.5Q183 399 183 396L184 12Q184 7 180.5 3.5Q177 0 172 0H56Q51 0 47.5 3.5Q44 7 44 12V688Q44 693 47.5 696.5Q51 700 56 700H187Q197 700 200 690L325 303Q326 300 328.5 300.5Q331 301 331 304L330 688Q330 693 333.5 696.5Q337 700 342 700Z" fill="#1A2744" transform="translate(411.376 141.699) scale(0.196712 -0.196712)"/>
<path d="M44 12V688Q44 693 47.5 696.5Q51 700 56 700H237Q328 700 383.0 647.0Q438 594 438 506V194Q438 106 383.0 53.0Q328 0 237 0H56Q51 0 47.5 3.5Q44 7 44 12ZM190 121 235 122Q262 123 279.0 145.0Q296 167 297 203V497Q297 535 280.0 557.0Q263 579 234 579H190Q185 579 185 574V126Q185 121 190 121Z" fill="#1A2744" transform="translate(520.354 141.699) scale(0.196712 -0.196712)"/>
<path d="M444 688V591Q444 586 440.5 582.5Q437 579 432 579H307Q302 579 302 574V12Q302 7 298.5 3.5Q295 0 290 0H173Q168 0 164.5 3.5Q161 7 161 12V574Q161 579 156 579H36Q31 579 27.5 582.5Q24 586 24 591V688Q24 693 27.5 696.5Q31 700 36 700H432Q437 700 440.5 696.5Q444 693 444 688Z" fill="#1A2744" transform="translate(669.069 141.699) scale(0.196712 -0.196712)"/>
<path d="M307 700H424Q429 700 432.5 696.5Q436 693 436 688V12Q436 7 432.5 3.5Q429 0 424 0H307Q302 0 298.5 3.5Q295 7 295 12V285Q295 290 290 290H190Q185 290 185 285V12Q185 7 181.5 3.5Q178 0 173 0H56Q51 0 47.5 3.5Q44 7 44 12V688Q44 693 47.5 696.5Q51 700 56 700H173Q178 700 181.5 696.5Q185 693 185 688V416Q185 411 190 411H290Q295 411 295 416V688Q295 693 298.5 696.5Q302 700 307 700Z" fill="#1A2744" transform="translate(768.999 141.699) scale(0.196712 -0.196712)"/>
<path d="M399 579H190Q185 579 185 574V416Q185 411 190 411H310Q315 411 318.5 407.5Q322 404 322 399V302Q322 297 318.5 293.5Q315 290 310 290H190Q185 290 185 285V126Q185 121 190 121H399Q404 121 407.5 117.5Q411 114 411 109V12Q411 7 407.5 3.5Q404 0 399 0H56Q51 0 47.5 3.5Q44 7 44 12V688Q44 693 47.5 696.5Q51 700 56 700H399Q404 700 407.5 696.5Q411 693 411 688V591Q411 586 407.5 582.5Q404 579 399 579Z" fill="#1A2744" transform="translate(871.289 141.699) scale(0.196712 -0.196712)"/>
<path d="M379 700H495Q500 700 503.5 696.5Q507 693 507 688V12Q507 7 503.5 3.5Q500 0 495 0H378Q373 0 369.5 3.5Q366 7 366 12V461Q366 465 364.0 465.0Q362 465 360 462L282 324Q277 316 274 316Q271 316 266 324L188 462Q186 465 184.0 465.0Q182 465 182 461V12Q182 7 178.5 3.5Q175 0 170 0H53Q48 0 44.5 3.5Q41 7 41 12V688Q41 693 44.5 696.5Q48 700 53 700H168Q178 700 183 692L272 533Q275 529 278 533L364 692Q368 700 379 700Z" fill="#1A2744" transform="translate(1012.529 141.699) scale(0.196712 -0.196712)"/>
<path d="M325 11 309 107Q309 112 303 112H176Q170 112 170 107L154 11Q153 0 141 0H24Q11 0 14 13L161 689Q163 700 174 700H309Q320 700 322 689L468 13L469 9Q469 0 458 0H338Q326 0 325 11ZM194 221H284Q289 221 288 226L241 499Q240 502 238.0 502.0Q236 502 235 499L190 226Q190 221 194 221Z" fill="#1A2744" transform="translate(1128.196 141.699) scale(0.196712 -0.196712)"/>
<path d="M34 181V519Q34 605 88.5 656.5Q143 708 233 708Q323 708 378.0 656.0Q433 604 433 518V480Q433 475 429.5 471.5Q426 468 421 468H304Q299 468 295.5 471.5Q292 475 292 480V520Q292 550 276.0 568.5Q260 587 233 587Q207 587 191.0 568.5Q175 550 175 520V180Q175 150 191.0 131.5Q207 113 233 113Q260 113 276.0 131.5Q292 150 292 180V260Q292 265 287 265H243Q238 265 234.5 268.5Q231 272 231 277V366Q231 371 234.5 374.5Q238 378 243 378H421Q426 378 429.5 374.5Q433 371 433 366V181Q433 95 378.0 43.5Q323 -8 233 -8Q143 -8 88.5 43.5Q34 95 34 181Z" fill="#1A2744" transform="translate(1230.880 141.699) scale(0.196712 -0.196712)"/>
<path d="M44 12V688Q44 693 47.5 696.5Q51 700 56 700H173Q178 700 181.5 696.5Q185 693 185 688V12Q185 7 181.5 3.5Q178 0 173 0H56Q51 0 47.5 3.5Q44 7 44 12Z" fill="#1A2744" transform="translate(1330.613 141.699) scale(0.196712 -0.196712)"/>
<path d="M34 189V513Q34 602 88.5 655.0Q143 708 233 708Q324 708 378.5 655.0Q433 602 433 513V502Q433 497 429.5 493.5Q426 490 421 490L304 485Q292 485 292 496V522Q292 551 276.0 569.0Q260 587 233 587Q207 587 191.0 569.0Q175 551 175 522V177Q175 148 191.0 130.5Q207 113 233 113Q260 113 276.0 130.5Q292 148 292 177V204Q292 209 295.5 212.5Q299 216 304 216L421 211Q426 211 429.5 207.5Q433 204 433 199V189Q433 99 378.0 45.5Q323 -8 233 -8Q143 -8 88.5 45.5Q34 99 34 189Z" fill="#1A2744" transform="translate(1383.725 141.699) scale(0.196712 -0.196712)"/></g>
  <rect x="2" y="151.70" width="1486.00" height="2.0" fill="#A0714F"/>
  <g id="tagline"><path d="M48 173V528Q48 610 97.5 659.0Q147 708 228 708Q310 708 359.5 659.0Q409 610 409 528V512Q409 502 399 502L323 498Q313 498 313 508V534Q313 575 289.5 600.0Q266 625 228 625Q190 625 167.0 600.0Q144 575 144 534V166Q144 125 167.0 100.0Q190 75 228 75Q266 75 289.5 100.0Q313 125 313 166V192Q313 202 323 202L399 198Q409 198 409 188V173Q409 91 359.5 41.5Q310 -8 228 -8Q147 -8 97.5 41.5Q48 91 48 173Z" fill="#5C6370" transform="translate(15.000 191.699) scale(0.037143 -0.037143)"/>
<path d="M48 175V524Q48 607 98.0 657.5Q148 708 230 708Q313 708 363.5 657.5Q414 607 414 524V175Q414 92 363.5 42.0Q313 -8 230 -8Q148 -8 98.0 42.0Q48 92 48 175ZM318 171V529Q318 572 294.0 598.5Q270 625 230 625Q191 625 167.5 598.5Q144 572 144 529V171Q144 128 167.5 101.5Q191 75 230 75Q270 75 294.0 101.5Q318 128 318 171Z" fill="#5C6370" transform="translate(57.091 191.699) scale(0.037143 -0.037143)"/>
<path d="M354 700H429Q439 700 439 690V10Q439 0 429 0H343Q335 0 332 8L162 465Q161 467 159.0 466.5Q157 466 157 464L158 10Q158 0 148 0H72Q62 0 62 10V690Q62 700 72 700H157Q165 700 168 692L339 235Q340 232 342.0 232.5Q344 233 344 236V690Q344 700 354 700Z" fill="#5C6370" transform="translate(99.553 191.699) scale(0.037143 -0.037143)"/>
<path d="M38 171V197Q38 207 48 207H122Q132 207 132 197V176Q132 130 155.0 102.5Q178 75 214 75Q250 75 273.5 101.5Q297 128 297 171Q297 200 284.5 222.0Q272 244 251.5 261.5Q231 279 185 313Q134 351 105.0 378.0Q76 405 56.0 443.0Q36 481 36 532Q36 613 84.0 660.5Q132 708 209 708Q289 708 337.5 657.0Q386 606 386 523V498Q386 488 376 488H302Q292 488 292 498V525Q292 570 269.0 597.5Q246 625 209 625Q174 625 152.0 600.5Q130 576 130 532Q130 492 152.0 464.5Q174 437 237 391Q297 346 327.5 318.0Q358 290 374.5 256.5Q391 223 391 177Q391 93 342.0 42.5Q293 -8 214 -8Q135 -8 86.5 41.5Q38 91 38 171Z" fill="#5C6370" transform="translate(143.464 191.699) scale(0.037143 -0.037143)"/>
<path d="M57 190V690Q57 700 67 700H143Q153 700 153 690V180Q153 133 176.5 104.0Q200 75 238 75Q277 75 300.5 104.0Q324 133 324 180V690Q324 700 334 700H410Q420 700 420 690V190Q420 101 370.0 46.5Q320 -8 238 -8Q156 -8 106.5 46.5Q57 101 57 190Z" fill="#5C6370" transform="translate(184.589 191.699) scale(0.037143 -0.037143)"/>
<path d="M62 10V690Q62 700 72 700H148Q158 700 158 690V87Q158 83 162 83H386Q396 83 396 73V10Q396 0 386 0H72Q62 0 62 10Z" fill="#5C6370" transform="translate(227.608 191.699) scale(0.037143 -0.037143)"/>
<path d="M409 690V627Q409 617 399 617H268Q264 617 264 613V10Q264 0 254 0H178Q168 0 168 10V613Q168 617 164 617H40Q30 617 30 627V690Q30 700 40 700H399Q409 700 409 690Z" fill="#5C6370" transform="translate(268.028 191.699) scale(0.037143 -0.037143)"/>
<path d="M62 10V690Q62 700 72 700H148Q158 700 158 690V10Q158 0 148 0H72Q62 0 62 10Z" fill="#5C6370" transform="translate(309.636 191.699) scale(0.037143 -0.037143)"/>
<path d="M354 700H429Q439 700 439 690V10Q439 0 429 0H343Q335 0 332 8L162 465Q161 467 159.0 466.5Q157 466 157 464L158 10Q158 0 148 0H72Q62 0 62 10V690Q62 700 72 700H157Q165 700 168 692L339 235Q340 232 342.0 232.5Q344 233 344 236V690Q344 700 354 700Z" fill="#5C6370" transform="translate(343.109 191.699) scale(0.037143 -0.037143)"/>
<path d="M48 167V533Q48 612 97.5 660.0Q147 708 228 708Q309 708 359.0 660.0Q409 612 409 532V490Q409 480 399 480H323Q313 480 313 490V534Q313 575 289.5 600.0Q266 625 228 625Q190 625 166.5 600.0Q143 575 143 534V166Q143 125 166.5 100.0Q190 75 228 75Q266 75 289.5 100.0Q313 125 313 166V276Q313 280 309 280H233Q223 280 223 290V352Q223 362 233 362H399Q409 362 409 352V167Q409 88 359.0 40.0Q309 -8 228 -8Q147 -8 97.5 40.0Q48 88 48 167Z" fill="#5C6370" transform="translate(387.020 191.699) scale(0.037143 -0.037143)"/>
<path d="M39 283Q39 311 57.0 329.0Q75 347 103 347Q131 347 149.0 329.0Q167 311 167 283Q167 255 149.0 237.0Q131 219 103 219Q75 219 57.0 237.0Q39 255 39 283Z" fill="#5C6370" transform="translate(494.758 191.699) scale(0.037143 -0.037143)"/>
<path d="M422 500Q422 412 376.0 358.0Q330 304 255 304H161Q157 304 157 300V10Q157 0 147 0H71Q61 0 61 10V691Q61 701 71 701H250Q327 701 374.5 645.5Q422 590 422 500ZM326 498Q326 553 301.0 585.5Q276 618 235 618H161Q157 618 157 614V385Q157 381 161 381H235Q276 381 301.0 412.5Q326 444 326 498Z" fill="#5C6370" transform="translate(593.173 191.699) scale(0.037143 -0.037143)"/>
<path d="M387 617H162Q158 617 158 613V396Q158 392 162 392H300Q310 392 310 382V319Q310 309 300 309H162Q158 309 158 305V87Q158 83 162 83H387Q397 83 397 73V10Q397 0 387 0H72Q62 0 62 10V690Q62 700 72 700H387Q397 700 397 690V627Q397 617 387 617Z" fill="#5C6370" transform="translate(635.227 191.699) scale(0.037143 -0.037143)"/>
<path d="M328 8 236 306Q235 309 232 309H162Q158 309 158 305V10Q158 0 148 0H72Q62 0 62 10V690Q62 700 72 700H251Q302 700 341.0 675.0Q380 650 401.5 604.5Q423 559 423 501Q423 438 397.0 391.5Q371 345 326 324Q323 321 324 318L426 11L427 7Q427 0 418 0H340Q331 0 328 8ZM158 613V389Q158 385 162 385H236Q277 385 302.0 416.5Q327 448 327 500Q327 554 302.0 585.5Q277 617 236 617H162Q158 617 158 613Z" fill="#5C6370" transform="translate(676.575 191.699) scale(0.037143 -0.037143)"/>
<path d="M386 617H162Q158 617 158 613V396Q158 392 162 392H299Q309 392 309 382V319Q309 309 299 309H162Q158 309 158 305V10Q158 0 148 0H72Q62 0 62 10V690Q62 700 72 700H386Q396 700 396 690V627Q396 617 386 617Z" fill="#5C6370" transform="translate(718.703 191.699) scale(0.037143 -0.037143)"/>
<path d="M48 175V524Q48 607 98.0 657.5Q148 708 230 708Q313 708 363.5 657.5Q414 607 414 524V175Q414 92 363.5 42.0Q313 -8 230 -8Q148 -8 98.0 42.0Q48 92 48 175ZM318 171V529Q318 572 294.0 598.5Q270 625 230 625Q191 625 167.5 598.5Q144 572 144 529V171Q144 128 167.5 101.5Q191 75 230 75Q270 75 294.0 101.5Q318 128 318 171Z" fill="#5C6370" transform="translate(759.234 191.699) scale(0.037143 -0.037143)"/>
<path d="M328 8 236 306Q235 309 232 309H162Q158 309 158 305V10Q158 0 148 0H72Q62 0 62 10V690Q62 700 72 700H251Q302 700 341.0 675.0Q380 650 401.5 604.5Q423 559 423 501Q423 438 397.0 391.5Q371 345 326 324Q323 321 324 318L426 11L427 7Q427 0 418 0H340Q331 0 328 8ZM158 613V389Q158 385 162 385H236Q277 385 302.0 416.5Q327 448 327 500Q327 554 302.0 585.5Q277 617 236 617H162Q158 617 158 613Z" fill="#5C6370" transform="translate(801.696 191.699) scale(0.037143 -0.037143)"/>
<path d="M385 700H461Q471 700 471 690V10Q471 0 461 0H385Q375 0 375 10V506Q375 509 373.5 509.0Q372 509 370 507L274 328Q271 321 265 321Q259 321 256 328L161 506Q159 508 157.5 508.0Q156 508 156 505V10Q156 0 146 0H70Q60 0 60 10V690Q60 700 70 700H146Q153 700 158 693L263 505Q264 504 266.0 504.0Q268 504 269 505L373 693Q377 700 385 700Z" fill="#5C6370" transform="translate(843.824 191.699) scale(0.037143 -0.037143)"/>
<path d="M325 9 303 124Q303 126 301.5 127.0Q300 128 298 128H135Q133 128 131.5 127.0Q130 126 130 124L109 9Q108 0 98 0H22Q17 0 14.5 3.0Q12 6 13 11L162 691Q164 700 173 700H262Q272 700 273 691L423 11V9Q423 0 414 0H336Q327 0 325 9ZM150 204H283Q286 204 286 208L218 563Q217 565 216.0 565.0Q215 565 214 563L147 208Q147 204 150 204Z" fill="#5C6370" transform="translate(888.812 191.699) scale(0.037143 -0.037143)"/>
<path d="M354 700H429Q439 700 439 690V10Q439 0 429 0H343Q335 0 332 8L162 465Q161 467 159.0 466.5Q157 466 157 464L158 10Q158 0 148 0H72Q62 0 62 10V690Q62 700 72 700H157Q165 700 168 692L339 235Q340 232 342.0 232.5Q344 233 344 236V690Q344 700 354 700Z" fill="#5C6370" transform="translate(930.308 191.699) scale(0.037143 -0.037143)"/>
<path d="M48 173V528Q48 610 97.5 659.0Q147 708 228 708Q310 708 359.5 659.0Q409 610 409 528V512Q409 502 399 502L323 498Q313 498 313 508V534Q313 575 289.5 600.0Q266 625 228 625Q190 625 167.0 600.0Q144 575 144 534V166Q144 125 167.0 100.0Q190 75 228 75Q266 75 289.5 100.0Q313 125 313 166V192Q313 202 323 202L399 198Q409 198 409 188V173Q409 91 359.5 41.5Q310 -8 228 -8Q147 -8 97.5 41.5Q48 91 48 173Z" fill="#5C6370" transform="translate(974.219 191.699) scale(0.037143 -0.037143)"/>
<path d="M387 617H162Q158 617 158 613V396Q158 392 162 392H300Q310 392 310 382V319Q310 309 300 309H162Q158 309 158 305V87Q158 83 162 83H387Q397 83 397 73V10Q397 0 387 0H72Q62 0 62 10V690Q62 700 72 700H387Q397 700 397 690V627Q397 617 387 617Z" fill="#5C6370" transform="translate(1016.310 191.699) scale(0.037143 -0.037143)"/>
<path d="M325 9 303 124Q303 126 301.5 127.0Q300 128 298 128H135Q133 128 131.5 127.0Q130 126 130 124L109 9Q108 0 98 0H22Q17 0 14.5 3.0Q12 6 13 11L162 691Q164 700 173 700H262Q272 700 273 691L423 11V9Q423 0 414 0H336Q327 0 325 9ZM150 204H283Q286 204 286 208L218 563Q217 565 216.0 565.0Q215 565 214 563L147 208Q147 204 150 204Z" fill="#5C6370" transform="translate(1090.389 191.699) scale(0.037143 -0.037143)"/>
<path d="M328 8 236 306Q235 309 232 309H162Q158 309 158 305V10Q158 0 148 0H72Q62 0 62 10V690Q62 700 72 700H251Q302 700 341.0 675.0Q380 650 401.5 604.5Q423 559 423 501Q423 438 397.0 391.5Q371 345 326 324Q323 321 324 318L426 11L427 7Q427 0 418 0H340Q331 0 328 8ZM158 613V389Q158 385 162 385H236Q277 385 302.0 416.5Q327 448 327 500Q327 554 302.0 585.5Q277 617 236 617H162Q158 617 158 613Z" fill="#5C6370" transform="translate(1131.885 191.699) scale(0.037143 -0.037143)"/>
<path d="M48 173V528Q48 610 97.5 659.0Q147 708 228 708Q310 708 359.5 659.0Q409 610 409 528V512Q409 502 399 502L323 498Q313 498 313 508V534Q313 575 289.5 600.0Q266 625 228 625Q190 625 167.0 600.0Q144 575 144 534V166Q144 125 167.0 100.0Q190 75 228 75Q266 75 289.5 100.0Q313 125 313 166V192Q313 202 323 202L399 198Q409 198 409 188V173Q409 91 359.5 41.5Q310 -8 228 -8Q147 -8 97.5 41.5Q48 91 48 173Z" fill="#5C6370" transform="translate(1174.013 191.699) scale(0.037143 -0.037143)"/>
<path d="M327 700H403Q413 700 413 690V10Q413 0 403 0H327Q317 0 317 10V305Q317 309 313 309H162Q158 309 158 305V10Q158 0 148 0H72Q62 0 62 10V690Q62 700 72 700H148Q158 700 158 690V396Q158 392 162 392H313Q317 392 317 396V690Q317 700 327 700Z" fill="#5C6370" transform="translate(1216.104 191.699) scale(0.037143 -0.037143)"/>
<path d="M62 10V690Q62 700 72 700H148Q158 700 158 690V10Q158 0 148 0H72Q62 0 62 10Z" fill="#5C6370" transform="translate(1259.049 191.699) scale(0.037143 -0.037143)"/>
<path d="M409 690V627Q409 617 399 617H268Q264 617 264 613V10Q264 0 254 0H178Q168 0 168 10V613Q168 617 164 617H40Q30 617 30 627V690Q30 700 40 700H399Q409 700 409 690Z" fill="#5C6370" transform="translate(1292.523 191.699) scale(0.037143 -0.037143)"/>
<path d="M387 617H162Q158 617 158 613V396Q158 392 162 392H300Q310 392 310 382V319Q310 309 300 309H162Q158 309 158 305V87Q158 83 162 83H387Q397 83 397 73V10Q397 0 387 0H72Q62 0 62 10V690Q62 700 72 700H387Q397 700 397 690V627Q397 617 387 617Z" fill="#5C6370" transform="translate(1334.130 191.699) scale(0.037143 -0.037143)"/>
<path d="M48 173V528Q48 610 97.5 659.0Q147 708 228 708Q310 708 359.5 659.0Q409 610 409 528V512Q409 502 399 502L323 498Q313 498 313 508V534Q313 575 289.5 600.0Q266 625 228 625Q190 625 167.0 600.0Q144 575 144 534V166Q144 125 167.0 100.0Q190 75 228 75Q266 75 289.5 100.0Q313 125 313 166V192Q313 202 323 202L399 198Q409 198 409 188V173Q409 91 359.5 41.5Q310 -8 228 -8Q147 -8 97.5 41.5Q48 91 48 173Z" fill="#5C6370" transform="translate(1375.478 191.699) scale(0.037143 -0.037143)"/>
<path d="M409 690V627Q409 617 399 617H268Q264 617 264 613V10Q264 0 254 0H178Q168 0 168 10V613Q168 617 164 617H40Q30 617 30 627V690Q30 700 40 700H399Q409 700 409 690Z" fill="#5C6370" transform="translate(1417.569 191.699) scale(0.037143 -0.037143)"/>
<path d="M38 171V197Q38 207 48 207H122Q132 207 132 197V176Q132 130 155.0 102.5Q178 75 214 75Q250 75 273.5 101.5Q297 128 297 171Q297 200 284.5 222.0Q272 244 251.5 261.5Q231 279 185 313Q134 351 105.0 378.0Q76 405 56.0 443.0Q36 481 36 532Q36 613 84.0 660.5Q132 708 209 708Q289 708 337.5 657.0Q386 606 386 523V498Q386 488 376 488H302Q292 488 292 498V525Q292 570 269.0 597.5Q246 625 209 625Q174 625 152.0 600.5Q130 576 130 532Q130 492 152.0 464.5Q174 437 237 391Q297 346 327.5 318.0Q358 290 374.5 256.5Q391 223 391 177Q391 93 342.0 42.5Q293 -8 214 -8Q135 -8 86.5 41.5Q38 91 38 171Z" fill="#5C6370" transform="translate(1459.177 191.699) scale(0.037143 -0.037143)"/></g>
</svg>
