<svg xmlns="http://www.w3.org/2000/svg" viewBox="0 0 340 268" role="img" aria-label="Beyond the Magic Consulting LLC">
  <path d="M 170 4 L 208 52 A 162 108 0 0 1 332 158 A 162 108 0 0 1 8 158 A 162 108 0 0 1 132 52 Z" fill="#1A2744"/>
  <path d="M 170 4 L 208 52 A 162 108 0 0 1 332 158 A 162 108 0 0 1 8 158 A 162 108 0 0 1 132 52 Z" fill="none" stroke="#C49A72" stroke-width="3" stroke-linejoin="miter"/>
  <ellipse cx="170" cy="158" rx="151" ry="97" fill="none" stroke="#C49A72" stroke-width="1.5" opacity="0.5"/>
  <polygon points="170,20 174,46 170,50 166,46" fill="#C49A72"/>
  <polygon points="170,80 174,54 170,50 166,54" fill="#C49A72"/>
  <polygon points="198,50 172,46 170,50 172,54" fill="#C49A72"/>
  <polygon points="142,50 168,46 170,50 168,54" fill="#C49A72"/>
  <polygon points="191,29 172,47 170,50 173,52" fill="#C49A72" opacity="0.6"/>
  <polygon points="149,29 168,47 170,50 167,52" fill="#C49A72" opacity="0.6"/>
  <polygon points="191,71 172,53 170,50 167,52" fill="#C49A72" opacity="0.6"/>
  <polygon points="149,71 168,53 170,50 173,52" fill="#C49A72" opacity="0.6"/>
  <circle cx="170" cy="50" r="3" fill="#C49A72"/>
  <path d="M95.087 141.0H87.365Q86.825 141.0 86.825 140.46V103.74000000000001Q86.825 103.2 87.365 103.2H94.763Q99.245 103.2 101.783 105.738Q104.321 108.27600000000001 104.321 112.974Q104.321 119.184 99.67699999999999 121.344Q99.569 121.398 99.542 121.452Q99.515 121.506 99.569 121.56Q101.945 122.748 103.214 125.09700000000001Q104.483 127.446 104.483 130.794Q104.53699999999999 135.654 101.999 138.327Q99.461 141.0 95.087 141.0ZM89.687 105.95400000000001V120.102Q89.687 120.318 89.90299999999999 120.318H94.817Q98.003 120.318 99.75800000000001 118.428Q101.513 116.538 101.513 113.136Q101.513 109.626 99.731 107.682Q97.949 105.738 94.817 105.738H89.90299999999999Q89.687 105.738 89.687 105.95400000000001ZM101.621 130.578Q101.621 126.798 99.839 124.69200000000001Q98.057 122.586 94.925 122.586H89.90299999999999Q89.687 122.586 89.687 122.80199999999999V138.192Q89.687 138.408 89.90299999999999 138.408H94.925Q98.11099999999999 138.408 99.86599999999999 136.356Q101.621 134.304 101.621 130.578Z M132.623 105.738H119.82499999999999Q119.609 105.738 119.609 105.95400000000001V120.588Q119.609 120.804 119.82499999999999 120.804H128.033Q128.57299999999998 120.804 128.57299999999998 121.344V122.80199999999999Q128.57299999999998 123.342 128.033 123.342H119.82499999999999Q119.609 123.342 119.609 123.55799999999999V138.246Q119.609 138.462 119.82499999999999 138.462H132.623Q133.16299999999998 138.462 133.16299999999998 139.002V140.46Q133.16299999999998 141.0 132.623 141.0H117.28699999999999Q116.747 141.0 116.747 140.46V103.74000000000001Q116.747 103.2 117.28699999999999 103.2H132.623Q133.16299999999998 103.2 133.16299999999998 103.74000000000001V105.19800000000001Q133.16299999999998 105.738 132.623 105.738Z M151.20499999999998 140.46V123.72Q151.20499999999998 123.504 151.15099999999998 123.45L143.69899999999998 103.848L143.64499999999998 103.632Q143.64499999999998 103.2 144.131 103.2H146.021Q146.50699999999998 103.2 146.66899999999998 103.632L152.50099999999998 120.156Q152.55499999999998 120.264 152.66299999999998 120.264Q152.771 120.264 152.825 120.156L158.60299999999998 103.632Q158.765 103.2 159.25099999999998 103.2H161.141Q161.411 103.2 161.546 103.38900000000001Q161.68099999999998 103.578 161.57299999999998 103.848L154.12099999999998 123.45Q154.06699999999998 123.504 154.06699999999998 123.72V140.46Q154.06699999999998 141.0 153.527 141.0H151.74499999999998Q151.20499999999998 141.0 151.20499999999998 140.46Z M173.027 132.36V111.894Q173.027 107.78999999999999 175.457 105.279Q177.88699999999997 102.768 181.88299999999998 102.768Q185.87899999999996 102.768 188.36299999999997 105.279Q190.84699999999998 107.78999999999999 190.84699999999998 111.894V132.36Q190.84699999999998 136.41 188.36299999999997 138.921Q185.87899999999996 141.432 181.88299999999998 141.432Q177.94099999999997 141.432 175.48399999999998 138.921Q173.027 136.41 173.027 132.36ZM187.98499999999999 132.468V111.786Q187.98499999999999 108.924 186.284 107.11500000000001Q184.58299999999997 105.306 181.88299999999998 105.306Q179.23699999999997 105.306 177.563 107.11500000000001Q175.88899999999998 108.924 175.88899999999998 111.786V132.468Q175.88899999999998 135.33 177.563 137.11200000000002Q179.23699999999997 138.894 181.88299999999998 138.894Q184.58299999999997 138.894 186.284 137.11200000000002Q187.98499999999999 135.33 187.98499999999999 132.468Z M219.905 103.2H221.63299999999998Q222.173 103.2 222.173 103.74000000000001V140.46Q222.173 141.0 221.63299999999998 141.0H219.527Q219.095 141.0 218.933 140.568L207.43099999999998 110.328Q207.37699999999998 110.166 207.269 110.193Q207.161 110.22 207.161 110.382L207.21499999999997 140.46Q207.21499999999997 141.0 206.67499999999998 141.0H204.893Q204.35299999999998 141.0 204.35299999999998 140.46V103.74000000000001Q204.35299999999998 103.2 204.893 103.2H206.945Q207.37699999999998 103.2 207.539 103.632L219.095 133.71Q219.149 133.872 219.257 133.84500000000003Q219.36499999999998 133.818 219.36499999999998 133.656V103.74000000000001Q219.36499999999998 103.2 219.905 103.2Z M236.70499999999998 140.46V103.74000000000001Q236.70499999999998 103.2 237.245 103.2H245.183Q249.179 103.2 251.50099999999998 105.87299999999999Q253.82299999999998 108.54599999999999 253.82299999999998 113.136V131.064Q253.82299999999998 135.654 251.50099999999998 138.327Q249.179 141.0 245.183 141.0H237.245Q236.70499999999998 141.0 236.70499999999998 140.46ZM239.783 138.462H245.183Q247.829 138.408 249.368 136.437Q250.90699999999998 134.466 250.90699999999998 131.01V113.244Q250.90699999999998 109.73400000000001 249.368 107.736Q247.829 105.738 245.129 105.738H239.783Q239.567 105.738 239.567 105.95400000000001V138.246Q239.567 138.462 239.783 138.462Z" fill="#FFFFFF"/><!-- BEYOND -->
  <path d="M102.38 151.2V151.74Q102.38 151.94 102.17999999999999 151.94H99.52Q99.44 151.94 99.44 152.02V164.8Q99.44 165.0 99.24 165.0H98.58Q98.38 165.0 98.38 164.8V152.02Q98.38 151.94 98.3 151.94H95.8Q95.6 151.94 95.6 151.74V151.2Q95.6 151.0 95.8 151.0H102.17999999999999Q102.38 151.0 102.38 151.2Z M120.05999999999999 151.0H120.72Q120.91999999999999 151.0 120.91999999999999 151.2V164.8Q120.91999999999999 165.0 120.72 165.0H120.05999999999999Q119.86 165.0 119.86 164.8V158.54Q119.86 158.46 119.78 158.46H115.82Q115.74 158.46 115.74 158.54V164.8Q115.74 165.0 115.53999999999999 165.0H114.88Q114.67999999999999 165.0 114.67999999999999 164.8V151.2Q114.67999999999999 151.0 114.88 151.0H115.53999999999999Q115.74 151.0 115.74 151.2V157.44Q115.74 157.52 115.82 157.52H119.78Q119.86 157.52 119.86 157.44V151.2Q119.86 151.0 120.05999999999999 151.0Z M139.96 151.94H135.22Q135.14 151.94 135.14 152.02V157.44Q135.14 157.52 135.22 157.52H138.26Q138.46 157.52 138.46 157.72V158.26Q138.46 158.46 138.26 158.46H135.22Q135.14 158.46 135.14 158.54V163.98Q135.14 164.06 135.22 164.06H139.96Q140.16 164.06 140.16 164.26V164.8Q140.16 165.0 139.96 165.0H134.28Q134.08 165.0 134.08 164.8V151.2Q134.08 151.0 134.28 151.0H139.96Q140.16 151.0 140.16 151.2V151.74Q140.16 151.94 139.96 151.94Z M172.88 151.0H173.56Q173.76 151.0 173.76 151.2V164.8Q173.76 165.0 173.56 165.0H172.9Q172.7 165.0 172.7 164.8V153.46Q172.7 153.4 172.66 153.4Q172.62 153.4 172.6 153.44L170.4 158.32Q170.34 158.48 170.2 158.48Q170.04 158.48 169.98 158.34L167.76 153.48Q167.72 153.44 167.69 153.44Q167.66 153.44 167.66 153.5V164.8Q167.66 165.0 167.45999999999998 165.0H166.79999999999998Q166.6 165.0 166.6 164.8V151.2Q166.6 151.0 166.79999999999998 151.0H167.48Q167.64 151.0 167.7 151.14L170.14 156.38Q170.16 156.42 170.2 156.42Q170.23999999999998 156.42 170.26 156.38L172.66 151.14Q172.72 151.0 172.88 151.0Z M191.82 164.82 191.28 162.2Q191.28 162.16 191.25 162.14Q191.22 162.12 191.18 162.12H187.26Q187.22 162.12 187.19 162.14Q187.16 162.16 187.16 162.2L186.62 164.82Q186.6 165.0 186.4 165.0H185.73999999999998Q185.64 165.0 185.58999999999997 164.94Q185.54 164.88 185.56 164.78L188.6 151.18Q188.64 151.0 188.82 151.0H189.62Q189.82 151.0 189.84 151.18L192.9 164.78V164.82Q192.9 165.0 192.72 165.0H192.04Q191.85999999999999 165.0 191.82 164.82ZM187.44 161.24H190.98Q191.04 161.24 191.04 161.16L189.26 152.7Q189.23999999999998 152.64 189.21999999999997 152.64Q189.2 152.64 189.18 152.7L187.38 161.16Q187.38 161.24 187.44 161.24Z M204.35999999999999 161.92V154.08Q204.35999999999999 152.62 205.25 151.73000000000002Q206.14 150.84 207.6 150.84Q209.05999999999997 150.84 209.95999999999998 151.73000000000002Q210.85999999999999 152.62 210.85999999999999 154.08V154.96Q210.85999999999999 155.16 210.66 155.16H210.0Q209.79999999999998 155.16 209.79999999999998 154.96V154.06Q209.79999999999998 153.02 209.2 152.4Q208.6 151.78 207.6 151.78Q206.6 151.78 206.0 152.4Q205.39999999999998 153.02 205.39999999999998 154.06V161.94Q205.39999999999998 162.98 206.0 163.6Q206.6 164.22 207.6 164.22Q208.6 164.22 209.2 163.6Q209.79999999999998 162.98 209.79999999999998 161.94V159.12Q209.79999999999998 159.04 209.72 159.04H207.83999999999997Q207.64 159.04 207.64 158.84V158.3Q207.64 158.1 207.83999999999997 158.1H210.66Q210.85999999999999 158.1 210.85999999999999 158.3V161.92Q210.85999999999999 163.38 209.95999999999998 164.26999999999998Q209.05999999999997 165.16 207.6 165.16Q206.14 165.16 205.25 164.26999999999998Q204.35999999999999 163.38 204.35999999999999 161.92Z M223.66 164.8V151.2Q223.66 151.0 223.85999999999999 151.0H224.51999999999998Q224.71999999999997 151.0 224.71999999999997 151.2V164.8Q224.71999999999997 165.0 224.51999999999998 165.0H223.85999999999999Q223.66 165.0 223.66 164.8Z M237.51999999999998 161.82V154.14Q237.51999999999998 152.64 238.40999999999997 151.74Q239.29999999999998 150.84 240.76 150.84Q242.23999999999998 150.84 243.13 151.74Q244.01999999999998 152.64 244.01999999999998 154.14V154.52Q244.01999999999998 154.62 243.95999999999998 154.68Q243.89999999999998 154.74 243.82 154.74L243.16 154.78Q242.95999999999998 154.78 242.95999999999998 154.58V154.08Q242.95999999999998 153.04 242.35999999999999 152.41Q241.76 151.78 240.76 151.78Q239.77999999999997 151.78 239.17999999999998 152.41Q238.57999999999998 153.04 238.57999999999998 154.08V161.9Q238.57999999999998 162.94 239.17999999999998 163.57999999999998Q239.77999999999997 164.22 240.76 164.22Q241.73999999999998 164.22 242.34999999999997 163.57999999999998Q242.95999999999998 162.94 242.95999999999998 161.9V161.44Q242.95999999999998 161.24 243.16 161.24L243.82 161.28Q244.01999999999998 161.28 244.01999999999998 161.48V161.82Q244.01999999999998 163.34 243.13 164.25Q242.23999999999998 165.16 240.76 165.16Q239.29999999999998 165.16 238.40999999999997 164.25Q237.51999999999998 163.34 237.51999999999998 161.82Z" fill="#FFFFFF" opacity="0.82"/><!-- THE MAGIC -->
  <path d="M120.9345 181.933V176.941Q120.9345 175.966 121.513 175.381Q122.0915 174.796 123.0405 174.796Q124.0025 174.796 124.58099999999999 175.381Q125.1595 175.966 125.1595 176.941V177.188Q125.1595 177.253 125.12049999999999 177.29199999999997Q125.08149999999999 177.331 125.0295 177.331L124.6005 177.357Q124.47049999999999 177.357 124.47049999999999 177.227V176.902Q124.47049999999999 176.226 124.0805 175.81650000000002Q123.6905 175.407 123.0405 175.407Q122.4035 175.407 122.0135 175.81650000000002Q121.62349999999999 176.226 121.62349999999999 176.902V181.985Q121.62349999999999 182.661 122.0135 183.077Q122.4035 183.493 123.0405 183.493Q123.6775 183.493 124.07399999999998 183.077Q124.47049999999999 182.661 124.47049999999999 181.985V181.686Q124.47049999999999 181.556 124.6005 181.556L125.0295 181.582Q125.1595 181.582 125.1595 181.712V181.933Q125.1595 182.921 124.58099999999999 183.5125Q124.0025 184.104 123.0405 184.104Q122.0915 184.104 121.513 183.5125Q120.9345 182.921 120.9345 181.933Z M131.6675 181.92V176.993Q131.6675 176.005 132.2525 175.4005Q132.83749999999998 174.796 133.7995 174.796Q134.76149999999998 174.796 135.35949999999997 175.4005Q135.95749999999998 176.005 135.95749999999998 176.993V181.92Q135.95749999999998 182.895 135.35949999999997 183.4995Q134.76149999999998 184.104 133.7995 184.104Q132.85049999999998 184.104 132.259 183.4995Q131.6675 182.895 131.6675 181.92ZM135.2685 181.946V176.967Q135.2685 176.278 134.85899999999998 175.8425Q134.44949999999997 175.407 133.7995 175.407Q133.1625 175.407 132.7595 175.8425Q132.35649999999998 176.278 132.35649999999998 176.967V181.946Q132.35649999999998 182.635 132.7595 183.064Q133.1625 183.493 133.7995 183.493Q134.44949999999997 183.493 134.85899999999998 183.064Q135.2685 182.635 135.2685 181.946Z M146.50849999999997 174.9H146.9245Q147.0545 174.9 147.0545 175.03V183.87Q147.0545 184.0 146.9245 184.0H146.4175Q146.31349999999998 184.0 146.2745 183.896L143.50549999999998 176.616Q143.49249999999998 176.577 143.4665 176.58350000000002Q143.4405 176.59 143.4405 176.629L143.4535 183.87Q143.4535 184.0 143.3235 184.0H142.8945Q142.76449999999997 184.0 142.76449999999997 183.87V175.03Q142.76449999999997 174.9 142.8945 174.9H143.3885Q143.49249999999998 174.9 143.5315 175.004L146.31349999999998 182.245Q146.32649999999998 182.284 146.35249999999996 182.27749999999997Q146.37849999999997 182.271 146.37849999999997 182.232V175.03Q146.37849999999997 174.9 146.50849999999997 174.9Z M153.66649999999998 181.829V181.556Q153.66649999999998 181.426 153.79649999999998 181.426H154.21249999999998Q154.34249999999997 181.426 154.34249999999997 181.556V181.803Q154.34249999999997 182.57 154.72599999999997 183.038Q155.10949999999997 183.506 155.7205 183.506Q156.33149999999998 183.506 156.73449999999997 183.051Q157.1375 182.596 157.1375 181.868Q157.1375 181.387 156.94899999999998 181.036Q156.76049999999998 180.685 156.46799999999996 180.4315Q156.17549999999997 180.178 155.5125 179.671Q154.83649999999997 179.164 154.47899999999998 178.83249999999998Q154.12149999999997 178.501 153.8875 178.0395Q153.65349999999998 177.578 153.65349999999998 176.941Q153.65349999999998 175.94 154.21249999999998 175.368Q154.77149999999997 174.796 155.6555 174.796Q156.60449999999997 174.796 157.17649999999998 175.433Q157.74849999999998 176.07 157.74849999999998 177.11V177.435Q157.74849999999998 177.565 157.61849999999998 177.565H157.18949999999998Q157.05949999999999 177.565 157.05949999999999 177.435V177.11Q157.05949999999999 176.343 156.676 175.86849999999998Q156.2925 175.394 155.6555 175.394Q155.0835 175.394 154.70649999999998 175.80349999999999Q154.32949999999997 176.213 154.32949999999997 176.954Q154.32949999999997 177.396 154.49199999999996 177.721Q154.65449999999998 178.046 154.95999999999998 178.332Q155.26549999999997 178.618 155.88949999999997 179.086Q156.65649999999997 179.658 157.03349999999998 180.00900000000001Q157.41049999999998 180.36 157.61199999999997 180.776Q157.81349999999998 181.192 157.81349999999998 181.777Q157.81349999999998 182.843 157.23499999999996 183.4735Q156.65649999999997 184.104 155.73349999999996 184.104Q154.8105 184.104 154.2385 183.4735Q153.66649999999998 182.843 153.66649999999998 181.829Z M164.3475 181.647V175.03Q164.3475 174.9 164.4775 174.9H164.9065Q165.0365 174.9 165.0365 175.03V181.725Q165.0365 182.518 165.433 183.00549999999998Q165.8295 183.493 166.47949999999997 183.493Q167.12949999999998 183.493 167.539 183.00549999999998Q167.9485 182.518 167.9485 181.725V175.03Q167.9485 174.9 168.0785 174.9H168.5075Q168.6375 174.9 168.6375 175.03V181.647Q168.6375 182.752 168.03949999999998 183.428Q167.4415 184.104 166.47949999999997 184.104Q165.51749999999998 184.104 164.9325 183.4345Q164.3475 182.765 164.3475 181.647Z M175.60049999999998 183.87V175.03Q175.60049999999998 174.9 175.7305 174.9H176.1595Q176.2895 174.9 176.2895 175.03V183.337Q176.2895 183.389 176.3415 183.389H179.3835Q179.5135 183.389 179.5135 183.519V183.87Q179.5135 184.0 179.3835 184.0H175.7305Q175.60049999999998 184.0 175.60049999999998 183.87Z M189.4925 175.03V175.381Q189.4925 175.511 189.3625 175.511H187.6335Q187.5815 175.511 187.5815 175.563V183.87Q187.5815 184.0 187.4515 184.0H187.0225Q186.8925 184.0 186.8925 183.87V175.563Q186.8925 175.511 186.84050000000002 175.511H185.21550000000002Q185.0855 175.511 185.0855 175.381V175.03Q185.0855 174.9 185.21550000000002 174.9H189.3625Q189.4925 174.9 189.4925 175.03Z M195.98749999999998 183.87V175.03Q195.98749999999998 174.9 196.1175 174.9H196.5465Q196.6765 174.9 196.6765 175.03V183.87Q196.6765 184.0 196.5465 184.0H196.1175Q195.98749999999998 184.0 195.98749999999998 183.87Z M207.47449999999998 174.9H207.8905Q208.0205 174.9 208.0205 175.03V183.87Q208.0205 184.0 207.8905 184.0H207.3835Q207.27949999999998 184.0 207.2405 183.896L204.4715 176.616Q204.4585 176.577 204.4325 176.58350000000002Q204.4065 176.59 204.4065 176.629L204.4195 183.87Q204.4195 184.0 204.2895 184.0H203.8605Q203.73049999999998 184.0 203.73049999999998 183.87V175.03Q203.73049999999998 174.9 203.8605 174.9H204.3545Q204.4585 174.9 204.4975 175.004L207.27949999999998 182.245Q207.2925 182.284 207.31849999999997 182.27749999999997Q207.34449999999998 182.271 207.34449999999998 182.232V175.03Q207.34449999999998 174.9 207.47449999999998 174.9Z M214.8405 181.998V176.902Q214.8405 175.953 215.41899999999998 175.3745Q215.99749999999997 174.796 216.9465 174.796Q217.8955 174.796 218.4805 175.3745Q219.0655 175.953 219.0655 176.902V177.474Q219.0655 177.604 218.9355 177.604H218.5065Q218.3765 177.604 218.3765 177.474V176.889Q218.3765 176.213 217.98649999999998 175.81Q217.5965 175.407 216.9465 175.407Q216.29649999999998 175.407 215.9065 175.81Q215.51649999999998 176.213 215.51649999999998 176.889V182.011Q215.51649999999998 182.687 215.9065 183.09Q216.29649999999998 183.493 216.9465 183.493Q217.5965 183.493 217.98649999999998 183.09Q218.3765 182.687 218.3765 182.011V180.178Q218.3765 180.126 218.32449999999997 180.126H217.1025Q216.9725 180.126 216.9725 179.996V179.645Q216.9725 179.515 217.1025 179.515H218.9355Q219.0655 179.515 219.0655 179.645V181.998Q219.0655 182.947 218.4805 183.52550000000002Q217.8955 184.104 216.9465 184.104Q215.99749999999997 184.104 215.41899999999998 183.52550000000002Q214.8405 182.947 214.8405 181.998Z" fill="#FFFFFF" opacity="0.62"/><!-- CONSULTING -->
  <rect x="100" y="194" width="140" height="1.5" fill="#C49A72"/>
  <path d="M80.74400000000001 207.5Q80.74400000000001 208.468 80.23800000000001 209.062Q79.73200000000001 209.656 78.90700000000001 209.656H77.87300000000002Q77.82900000000002 209.656 77.82900000000002 209.7V212.89Q77.82900000000002 213.0 77.71900000000002 213.0H76.88300000000002Q76.77300000000002 213.0 76.77300000000002 212.89V205.399Q76.77300000000002 205.289 76.88300000000002 205.289H78.85200000000002Q79.69900000000001 205.289 80.22150000000002 205.8995Q80.74400000000001 206.51 80.74400000000001 207.5ZM79.68800000000002 207.522Q79.68800000000002 206.917 79.41300000000001 206.5595Q79.13800000000002 206.202 78.68700000000001 206.202H77.87300000000002Q77.82900000000002 206.202 77.82900000000002 206.246V208.765Q77.82900000000002 208.809 77.87300000000002 208.809H78.68700000000001Q79.13800000000002 208.809 79.41300000000001 208.4625Q79.68800000000002 208.116 79.68800000000002 207.522Z M89.32000000000002 206.213H86.84500000000001Q86.80100000000002 206.213 86.80100000000002 206.257V208.644Q86.80100000000002 208.688 86.84500000000001 208.688H88.36300000000001Q88.47300000000001 208.688 88.47300000000001 208.798V209.491Q88.47300000000001 209.601 88.36300000000001 209.601H86.84500000000001Q86.80100000000002 209.601 86.80100000000002 209.645V212.043Q86.80100000000002 212.087 86.84500000000001 212.087H89.32000000000002Q89.43000000000002 212.087 89.43000000000002 212.197V212.89Q89.43000000000002 213.0 89.32000000000002 213.0H85.85500000000002Q85.74500000000002 213.0 85.74500000000002 212.89V205.41Q85.74500000000002 205.3 85.85500000000002 205.3H89.32000000000002Q89.43000000000002 205.3 89.43000000000002 205.41V206.103Q89.43000000000002 206.213 89.32000000000002 206.213Z M97.42300000000002 212.912 96.41100000000002 209.63400000000001Q96.4 209.601 96.36700000000002 209.601H95.59700000000001Q95.55300000000001 209.601 95.55300000000001 209.645V212.89Q95.55300000000001 213.0 95.44300000000001 213.0H94.60700000000001Q94.49700000000001 213.0 94.49700000000001 212.89V205.41Q94.49700000000001 205.3 94.60700000000001 205.3H96.57600000000001Q97.13700000000001 205.3 97.566 205.575Q97.995 205.85 98.23150000000001 206.3505Q98.46800000000002 206.851 98.46800000000002 207.489Q98.46800000000002 208.182 98.18200000000002 208.6935Q97.89600000000002 209.205 97.40100000000001 209.436Q97.36800000000001 209.469 97.379 209.502L98.501 212.879L98.51200000000001 212.923Q98.51200000000001 213.0 98.41300000000001 213.0H97.555Q97.45600000000002 213.0 97.42300000000002 212.912ZM95.55300000000001 206.257V208.721Q95.55300000000001 208.765 95.59700000000001 208.765H96.41100000000002Q96.86200000000001 208.765 97.137 208.4185Q97.412 208.072 97.412 207.5Q97.412 206.906 97.137 206.5595Q96.86200000000001 206.213 96.41100000000002 206.213H95.59700000000001Q95.55300000000001 206.213 95.55300000000001 206.257Z M107.04400000000001 206.213H104.58000000000001Q104.53600000000002 206.213 104.53600000000002 206.257V208.644Q104.53600000000002 208.688 104.58000000000001 208.688H106.08700000000002Q106.19700000000002 208.688 106.19700000000002 208.798V209.491Q106.19700000000002 209.601 106.08700000000002 209.601H104.58000000000001Q104.53600000000002 209.601 104.53600000000002 209.645V212.89Q104.53600000000002 213.0 104.42600000000002 213.0H103.59000000000002Q103.48000000000002 213.0 103.48000000000002 212.89V205.41Q103.48000000000002 205.3 103.59000000000002 205.3H107.04400000000001Q107.15400000000001 205.3 107.15400000000001 205.41V206.103Q107.15400000000001 206.213 107.04400000000001 206.213Z M111.83600000000003 211.075V207.236Q111.83600000000003 206.323 112.38600000000002 205.76749999999998Q112.93600000000002 205.212 113.83800000000002 205.212Q114.75100000000002 205.212 115.30650000000003 205.76749999999998Q115.86200000000002 206.323 115.86200000000002 207.236V211.075Q115.86200000000002 211.988 115.30650000000003 212.538Q114.75100000000002 213.088 113.83800000000002 213.088Q112.93600000000002 213.088 112.38600000000002 212.538Q111.83600000000003 211.988 111.83600000000003 211.075ZM114.80600000000003 211.119V207.181Q114.80600000000003 206.708 114.54200000000003 206.41649999999998Q114.27800000000002 206.125 113.83800000000002 206.125Q113.40900000000002 206.125 113.15050000000002 206.41649999999998Q112.89200000000002 206.708 112.89200000000002 207.181V211.119Q112.89200000000002 211.592 113.15050000000002 211.88350000000003Q113.40900000000002 212.175 113.83800000000002 212.175Q114.27800000000002 212.175 114.54200000000003 211.88350000000003Q114.80600000000003 211.592 114.80600000000003 211.119Z M123.99800000000002 212.912 122.98600000000002 209.63400000000001Q122.97500000000001 209.601 122.94200000000002 209.601H122.17200000000001Q122.12800000000001 209.601 122.12800000000001 209.645V212.89Q122.12800000000001 213.0 122.01800000000001 213.0H121.18200000000002Q121.07200000000002 213.0 121.07200000000002 212.89V205.41Q121.07200000000002 205.3 121.18200000000002 205.3H123.15100000000001Q123.71200000000002 205.3 124.14100000000002 205.575Q124.57000000000002 205.85 124.80650000000003 206.3505Q125.04300000000002 206.851 125.04300000000002 207.489Q125.04300000000002 208.182 124.75700000000002 208.6935Q124.47100000000002 209.205 123.97600000000001 209.436Q123.94300000000001 209.469 123.95400000000001 209.502L125.07600000000002 212.879L125.08700000000002 212.923Q125.08700000000002 213.0 124.98800000000001 213.0H124.13000000000001Q124.03100000000002 213.0 123.99800000000002 212.912ZM122.12800000000001 206.257V208.721Q122.12800000000001 208.765 122.17200000000001 208.765H122.98600000000002Q123.43700000000001 208.765 123.71200000000002 208.4185Q123.98700000000001 208.072 123.98700000000001 207.5Q123.98700000000001 206.906 123.71200000000002 206.5595Q123.43700000000001 206.213 122.98600000000002 206.213H122.17200000000001Q122.12800000000001 206.213 122.12800000000001 206.257Z M133.608 205.3H134.44400000000002Q134.55400000000003 205.3 134.55400000000003 205.41V212.89Q134.55400000000003 213.0 134.44400000000002 213.0H133.608Q133.49800000000002 213.0 133.49800000000002 212.89V207.434Q133.49800000000002 207.401 133.48150000000004 207.401Q133.46500000000003 207.401 133.443 207.423L132.38700000000003 209.392Q132.354 209.469 132.288 209.469Q132.222 209.469 132.18900000000002 209.392L131.144 207.434Q131.122 207.412 131.1055 207.412Q131.08900000000003 207.412 131.08900000000003 207.445V212.89Q131.08900000000003 213.0 130.979 213.0H130.14300000000003Q130.03300000000002 213.0 130.03300000000002 212.89V205.41Q130.03300000000002 205.3 130.14300000000003 205.3H130.979Q131.056 205.3 131.11100000000002 205.377L132.26600000000002 207.445Q132.27700000000002 207.456 132.29900000000004 207.456Q132.32100000000003 207.456 132.33200000000002 207.445L133.47600000000003 205.377Q133.52 205.3 133.608 205.3Z M142.77800000000002 212.901 142.53600000000003 211.636Q142.53600000000003 211.614 142.51950000000005 211.603Q142.50300000000004 211.592 142.48100000000002 211.592H140.68800000000005Q140.66600000000003 211.592 140.64950000000005 211.603Q140.63300000000004 211.614 140.63300000000004 211.636L140.40200000000004 212.901Q140.39100000000002 213.0 140.28100000000003 213.0H139.44500000000002Q139.39000000000004 213.0 139.36250000000004 212.96699999999998Q139.33500000000004 212.934 139.34600000000003 212.879L140.98500000000004 205.399Q141.00700000000003 205.3 141.10600000000002 205.3H142.08500000000004Q142.19500000000002 205.3 142.20600000000002 205.399L143.85600000000002 212.879V212.901Q143.85600000000002 213.0 143.75700000000003 213.0H142.89900000000003Q142.80000000000004 213.0 142.77800000000002 212.901ZM140.85300000000004 210.756H142.31600000000003Q142.34900000000002 210.756 142.34900000000002 210.712L141.60100000000003 206.807Q141.59000000000003 206.785 141.57900000000004 206.785Q141.56800000000004 206.785 141.55700000000004 206.807L140.82000000000002 210.712Q140.82000000000002 210.756 140.85300000000004 210.756Z M151.89300000000003 205.3H152.71800000000002Q152.82800000000003 205.3 152.82800000000003 205.41V212.89Q152.82800000000003 213.0 152.71800000000002 213.0H151.77200000000002Q151.68400000000003 213.0 151.651 212.912L149.78100000000003 207.885Q149.77 207.863 149.74800000000002 207.86849999999998Q149.72600000000003 207.874 149.72600000000003 207.896L149.73700000000002 212.89Q149.73700000000002 213.0 149.627 213.0H148.79100000000003Q148.681 213.0 148.681 212.89V205.41Q148.681 205.3 148.79100000000003 205.3H149.72600000000003Q149.81400000000002 205.3 149.84700000000004 205.388L151.72800000000004 210.415Q151.73900000000003 210.448 151.76100000000002 210.4425Q151.78300000000002 210.437 151.78300000000002 210.404V205.41Q151.78300000000002 205.3 151.89300000000003 205.3Z M158.038 211.097V207.192Q158.038 206.29 158.5825 205.75099999999998Q159.127 205.212 160.01800000000003 205.212Q160.92000000000002 205.212 161.46450000000002 205.75099999999998Q162.00900000000001 206.29 162.00900000000001 207.192V207.368Q162.00900000000001 207.478 161.89900000000003 207.478L161.06300000000002 207.522Q160.95300000000003 207.522 160.95300000000003 207.412V207.126Q160.95300000000003 206.675 160.6945 206.4Q160.436 206.125 160.01800000000003 206.125Q159.60000000000002 206.125 159.34700000000004 206.4Q159.09400000000002 206.675 159.09400000000002 207.126V211.174Q159.09400000000002 211.625 159.34700000000004 211.9Q159.60000000000002 212.175 160.01800000000003 212.175Q160.436 212.175 160.6945 211.9Q160.95300000000003 211.625 160.95300000000003 211.174V210.888Q160.95300000000003 210.778 161.06300000000002 210.778L161.89900000000003 210.822Q162.00900000000001 210.822 162.00900000000001 210.932V211.097Q162.00900000000001 211.999 161.46450000000002 212.5435Q160.92000000000002 213.088 160.01800000000003 213.088Q159.127 213.088 158.5825 212.5435Q158.038 211.999 158.038 211.097Z M170.73900000000003 206.213H168.26400000000004Q168.22000000000003 206.213 168.22000000000003 206.257V208.644Q168.22000000000003 208.688 168.26400000000004 208.688H169.78200000000004Q169.89200000000002 208.688 169.89200000000002 208.798V209.491Q169.89200000000002 209.601 169.78200000000004 209.601H168.26400000000004Q168.22000000000003 209.601 168.22000000000003 209.645V212.043Q168.22000000000003 212.087 168.26400000000004 212.087H170.73900000000003Q170.84900000000002 212.087 170.84900000000002 212.197V212.89Q170.84900000000002 213.0 170.73900000000003 213.0H167.27400000000003Q167.16400000000002 213.0 167.16400000000002 212.89V205.41Q167.16400000000002 205.3 167.27400000000003 205.3H170.73900000000003Q170.84900000000002 205.3 170.84900000000002 205.41V206.103Q170.84900000000002 206.213 170.73900000000003 206.213Z M185.00900000000001 212.901 184.76700000000002 211.636Q184.76700000000002 211.614 184.75050000000005 211.603Q184.73400000000004 211.592 184.71200000000002 211.592H182.91900000000004Q182.89700000000002 211.592 182.88050000000004 211.603Q182.86400000000003 211.614 182.86400000000003 211.636L182.63300000000004 212.901Q182.622 213.0 182.51200000000003 213.0H181.67600000000002Q181.62100000000004 213.0 181.59350000000003 212.96699999999998Q181.56600000000003 212.934 181.57700000000003 212.879L183.21600000000004 205.399Q183.23800000000003 205.3 183.33700000000002 205.3H184.31600000000003Q184.42600000000002 205.3 184.437 205.399L186.08700000000002 212.879V212.901Q186.08700000000002 213.0 185.98800000000003 213.0H185.13000000000002Q185.03100000000003 213.0 185.00900000000001 212.901ZM183.08400000000003 210.756H184.54700000000003Q184.58 210.756 184.58 210.712L183.83200000000002 206.807Q183.82100000000003 206.785 183.81000000000003 206.785Q183.79900000000004 206.785 183.78800000000004 206.807L183.05100000000002 210.712Q183.05100000000002 210.756 183.08400000000003 210.756Z M193.83800000000002 212.912 192.82600000000002 209.63400000000001Q192.81500000000003 209.601 192.782 209.601H192.01200000000003Q191.96800000000002 209.601 191.96800000000002 209.645V212.89Q191.96800000000002 213.0 191.858 213.0H191.02200000000002Q190.912 213.0 190.912 212.89V205.41Q190.912 205.3 191.02200000000002 205.3H192.991Q193.55200000000002 205.3 193.98100000000002 205.575Q194.41000000000003 205.85 194.6465 206.3505Q194.883 206.851 194.883 207.489Q194.883 208.182 194.597 208.6935Q194.311 209.205 193.81600000000003 209.436Q193.78300000000002 209.469 193.794 209.502L194.91600000000003 212.879L194.92700000000002 212.923Q194.92700000000002 213.0 194.82800000000003 213.0H193.97000000000003Q193.871 213.0 193.83800000000002 212.912ZM191.96800000000002 206.257V208.721Q191.96800000000002 208.765 192.01200000000003 208.765H192.82600000000002Q193.27700000000002 208.765 193.55200000000002 208.4185Q193.82700000000003 208.072 193.82700000000003 207.5Q193.82700000000003 206.906 193.55200000000002 206.5595Q193.27700000000002 206.213 192.82600000000002 206.213H192.01200000000003Q191.96800000000002 206.213 191.96800000000002 206.257Z M199.741 211.097V207.192Q199.741 206.29 200.2855 205.75099999999998Q200.83 205.212 201.72100000000003 205.212Q202.62300000000002 205.212 203.16750000000002 205.75099999999998Q203.71200000000002 206.29 203.71200000000002 207.192V207.368Q203.71200000000002 207.478 203.60200000000003 207.478L202.76600000000002 207.522Q202.65600000000003 207.522 202.65600000000003 207.412V207.126Q202.65600000000003 206.675 202.39750000000004 206.4Q202.139 206.125 201.72100000000003 206.125Q201.30300000000003 206.125 201.05 206.4Q200.79700000000003 206.675 200.79700000000003 207.126V211.174Q200.79700000000003 211.625 201.05 211.9Q201.30300000000003 212.175 201.72100000000003 212.175Q202.139 212.175 202.39750000000004 211.9Q202.65600000000003 211.625 202.65600000000003 211.174V210.888Q202.65600000000003 210.778 202.76600000000002 210.778L203.60200000000003 210.822Q203.71200000000002 210.822 203.71200000000002 210.932V211.097Q203.71200000000002 211.999 203.16750000000002 212.5435Q202.62300000000002 213.088 201.72100000000003 213.088Q200.83 213.088 200.2855 212.5435Q199.741 211.999 199.741 211.097Z M211.78200000000004 205.3H212.61800000000002Q212.72800000000004 205.3 212.72800000000004 205.41V212.89Q212.72800000000004 213.0 212.61800000000002 213.0H211.78200000000004Q211.67200000000003 213.0 211.67200000000003 212.89V209.645Q211.67200000000003 209.601 211.62800000000004 209.601H209.96700000000004Q209.92300000000003 209.601 209.92300000000003 209.645V212.89Q209.92300000000003 213.0 209.81300000000002 213.0H208.97700000000003Q208.86700000000002 213.0 208.86700000000002 212.89V205.41Q208.86700000000002 205.3 208.97700000000003 205.3H209.81300000000002Q209.92300000000003 205.3 209.92300000000003 205.41V208.644Q209.92300000000003 208.688 209.96700000000004 208.688H211.62800000000004Q211.67200000000003 208.688 211.67200000000003 208.644V205.41Q211.67200000000003 205.3 211.78200000000004 205.3Z M218.092 212.89V205.41Q218.092 205.3 218.20200000000003 205.3H219.038Q219.14800000000002 205.3 219.14800000000002 205.41V212.89Q219.14800000000002 213.0 219.038 213.0H218.20200000000003Q218.092 213.0 218.092 212.89Z M228.329 205.41V206.103Q228.329 206.213 228.21900000000002 206.213H226.77800000000002Q226.734 206.213 226.734 206.257V212.89Q226.734 213.0 226.62400000000002 213.0H225.788Q225.67800000000003 213.0 225.67800000000003 212.89V206.257Q225.67800000000003 206.213 225.63400000000001 206.213H224.27Q224.16000000000003 206.213 224.16000000000003 206.103V205.41Q224.16000000000003 205.3 224.27 205.3H228.21900000000002Q228.329 205.3 228.329 205.41Z M236.91600000000003 206.213H234.44100000000003Q234.39700000000002 206.213 234.39700000000002 206.257V208.644Q234.39700000000002 208.688 234.44100000000003 208.688H235.95900000000003Q236.06900000000002 208.688 236.06900000000002 208.798V209.491Q236.06900000000002 209.601 235.95900000000003 209.601H234.44100000000003Q234.39700000000002 209.601 234.39700000000002 209.645V212.043Q234.39700000000002 212.087 234.44100000000003 212.087H236.91600000000003Q237.026 212.087 237.026 212.197V212.89Q237.026 213.0 236.91600000000003 213.0H233.45100000000002Q233.341 213.0 233.341 212.89V205.41Q233.341 205.3 233.45100000000002 205.3H236.91600000000003Q237.026 205.3 237.026 205.41V206.103Q237.026 206.213 236.91600000000003 206.213Z M241.93900000000002 211.097V207.192Q241.93900000000002 206.29 242.48350000000002 205.75099999999998Q243.02800000000002 205.212 243.91900000000004 205.212Q244.82100000000003 205.212 245.36550000000003 205.75099999999998Q245.91000000000003 206.29 245.91000000000003 207.192V207.368Q245.91000000000003 207.478 245.80000000000004 207.478L244.96400000000003 207.522Q244.85400000000004 207.522 244.85400000000004 207.412V207.126Q244.85400000000004 206.675 244.59550000000002 206.4Q244.33700000000002 206.125 243.91900000000004 206.125Q243.50100000000003 206.125 243.24800000000005 206.4Q242.99500000000003 206.675 242.99500000000003 207.126V211.174Q242.99500000000003 211.625 243.24800000000005 211.9Q243.50100000000003 212.175 243.91900000000004 212.175Q244.33700000000002 212.175 244.59550000000002 211.9Q244.85400000000004 211.625 244.85400000000004 211.174V210.888Q244.85400000000004 210.778 244.96400000000003 210.778L245.80000000000004 210.822Q245.91000000000003 210.822 245.91000000000003 210.932V211.097Q245.91000000000003 211.999 245.36550000000003 212.5435Q244.82100000000003 213.088 243.91900000000004 213.088Q243.02800000000002 213.088 242.48350000000002 212.5435Q241.93900000000002 211.999 241.93900000000002 211.097Z M254.88200000000003 205.41V206.103Q254.88200000000003 206.213 254.77200000000005 206.213H253.33100000000005Q253.28700000000003 206.213 253.28700000000003 206.257V212.89Q253.28700000000003 213.0 253.17700000000005 213.0H252.34100000000004Q252.23100000000005 213.0 252.23100000000005 212.89V206.257Q252.23100000000005 206.213 252.18700000000004 206.213H250.82300000000004Q250.71300000000005 206.213 250.71300000000005 206.103V205.41Q250.71300000000005 205.3 250.82300000000004 205.3H254.77200000000005Q254.88200000000003 205.3 254.88200000000003 205.41Z M259.63000000000005 211.119V210.833Q259.63000000000005 210.723 259.74000000000007 210.723H260.55400000000003Q260.66400000000004 210.723 260.66400000000004 210.833V211.064Q260.66400000000004 211.57 260.91700000000003 211.8725Q261.1700000000001 212.175 261.56600000000003 212.175Q261.96200000000005 212.175 262.2205 211.88350000000003Q262.47900000000004 211.592 262.47900000000004 211.119Q262.47900000000004 210.8 262.34150000000005 210.558Q262.20400000000006 210.316 261.97850000000005 210.1235Q261.75300000000004 209.931 261.24700000000007 209.557Q260.68600000000004 209.139 260.3670000000001 208.84199999999998Q260.04800000000006 208.545 259.8280000000001 208.127Q259.60800000000006 207.709 259.60800000000006 207.148Q259.60800000000006 206.257 260.1360000000001 205.7345Q260.66400000000004 205.212 261.511 205.212Q262.391 205.212 262.9245 205.773Q263.458 206.334 263.458 207.247V207.522Q263.458 207.632 263.34800000000007 207.632H262.53400000000005Q262.42400000000004 207.632 262.42400000000004 207.522V207.225Q262.42400000000004 206.73 262.17100000000005 206.4275Q261.91800000000006 206.125 261.511 206.125Q261.12600000000003 206.125 260.884 206.3945Q260.64200000000005 206.664 260.64200000000005 207.148Q260.64200000000005 207.588 260.884 207.8905Q261.12600000000003 208.193 261.8190000000001 208.699Q262.47900000000004 209.194 262.81450000000007 209.502Q263.15000000000003 209.81 263.3315 210.17849999999999Q263.51300000000003 210.547 263.51300000000003 211.053Q263.51300000000003 211.977 262.97400000000005 212.5325Q262.43500000000006 213.088 261.56600000000003 213.088Q260.69700000000006 213.088 260.16350000000006 212.5435Q259.63000000000005 211.999 259.63000000000005 211.119Z" fill="#C49A72"/><!-- PERFORMANCE ARCHITECTS -->
</svg>
